<?xml version="1.0" standalone="no"?>
<!DOCTYPE svg PUBLIC "-//W3C//DTD SVG 20010904//EN"
 "http://www.w3.org/TR/2001/REC-SVG-20010904/DTD/svg10.dtd">
<svg version="1.0" xmlns="http://www.w3.org/2000/svg"
 width="200.000000pt" height="200.000000pt" viewBox="0 0 200.000000 200.000000"
 preserveAspectRatio="xMidYMid meet">

<g transform="translate(0.000000,200.000000) scale(0.100000,-0.100000)"
fill="#000000" stroke="none">
<path d="M685 1385 c-347 -201 -640 -376 -652 -390 -74 -84 -17 -304 111 -430
76 -75 466 -304 531 -312 39 -5 73 13 660 352 341 196 630 368 643 381 31 35
29 87 -8 162 -28 55 -69 101 -114 127 -15 8 -7 16 49 48 64 37 66 39 63 75
l-3 36 -275 158 c-257 148 -278 158 -325 157 -47 0 -85 -20 -680 -364z m961
164 c126 -73 237 -137 246 -143 14 -10 -74 -64 -554 -341 -313 -182 -578 -334
-588 -339 -15 -7 -74 23 -267 135 -136 78 -258 148 -271 155 -13 6 -20 14 -15
17 122 72 1102 636 1113 640 8 3 36 6 61 6 41 1 69 -12 275 -130z m171 -321
c114 -64 152 -147 96 -207 -22 -23 -1086 -647 -1137 -667 -6 -2 -19 18 -29 45
-33 95 -67 125 -266 241 -101 58 -183 110 -183 115 0 5 27 23 59 41 l59 34
158 -91 c86 -50 162 -89 169 -86 7 3 242 138 522 301 281 162 511 295 512 296
1 0 19 -10 40 -22z m-1539 -317 c39 -24 72 -44 72 -46 0 -2 -29 -21 -66 -41
-63 -35 -65 -38 -62 -71 3 -35 7 -38 205 -152 110 -64 211 -125 223 -136 67
-61 65 -163 -3 -138 -59 21 -446 252 -483 289 -63 62 -99 144 -99 226 0 57 3
70 25 93 36 38 92 31 188 -24z"/>
<path d="M1094 1444 c-142 -80 -260 -147 -262 -149 -3 -2 11 -12 31 -21 l35
-17 256 144 c141 79 256 147 256 151 0 4 -13 14 -28 22 -28 15 -33 12 -288
-130z"/>
<path d="M1225 1365 c-142 -80 -261 -147 -262 -149 -2 -1 12 -11 31 -21 l34
-18 103 58 c57 32 175 99 262 148 l159 89 -31 19 c-17 10 -33 19 -34 19 -1 0
-119 -65 -262 -145z"/>
<path d="M1360 1287 c-140 -78 -254 -147 -253 -151 0 -5 12 -16 26 -24 26 -16
18 -20 425 210 l124 70 -29 19 c-15 10 -30 19 -33 19 -3 0 -120 -64 -260 -143z"/>
<path d="M596 1165 c-82 -46 -153 -88 -158 -93 -6 -6 51 -47 151 -107 l162
-97 164 93 c91 51 165 95 165 98 0 10 -307 191 -322 191 -7 -1 -80 -39 -162
-85z"/>
<path d="M1278 847 c-268 -156 -490 -285 -493 -289 -12 -11 27 -60 44 -55 24
6 973 556 991 573 13 14 12 17 -9 35 -13 10 -28 19 -35 18 -6 0 -230 -127
-498 -282z"/>
</g>
</svg>
